<?xml version="1.0" encoding="utf-8"?><!-- Uploaded to: SVG Repo, www.svgrepo.com, Generator: SVG Repo Mixer Tools -->
<svg version="1.1" id="Uploaded to svgrepo.com" xmlns="http://www.w3.org/2000/svg" xmlns:xlink="http://www.w3.org/1999/xlink" 
	 width="800px" height="800px" viewBox="0 0 32 32" xml:space="preserve">
<style type="text/css">
	.linesandangles_een{fill:#111918;}
</style>
<path class="linesandangles_een" d="M23,15h2v2h-2V15z M30,16v6h-2c0,1.657-1.343,3-3,3s-3-1.343-3-3h-2c0,1.657-1.343,3-3,3
	s-3-1.343-3-3h-4c0,1.657-1.343,3-3,3s-3-1.343-3-3H2V8h20v4h4L30,16z M8,22c0-0.551-0.449-1-1-1s-1,0.449-1,1s0.449,1,1,1
	S8,22.551,8,22z M18,22c0-0.551-0.449-1-1-1s-1,0.449-1,1s0.449,1,1,1S18,22.551,18,22z M20,10H4v10h0.779
	C5.328,19.39,6.115,19,7,19s1.672,0.39,2.221,1h5.557c0.549-0.61,1.336-1,2.221-1s1.672,0.39,2.221,1H20V10z M26,22
	c0-0.551-0.449-1-1-1s-1,0.449-1,1s0.449,1,1,1S26,22.551,26,22z M28,16.828L25.172,14H22v6h0.779c0.549-0.61,1.336-1,2.221-1
	s1.672,0.39,2.221,1H28V16.828z"/>
</svg>