<?xml version="1.0" ?>
<!-- Uploaded to: SVG Repo, www.svgrepo.com, Generator: SVG Repo Mixer Tools -->
<svg width="800px" height="800px" viewBox="0 0 512 512" version="1.1" xml:space="preserve" xmlns="http://www.w3.org/2000/svg" xmlns:xlink="http://www.w3.org/1999/xlink">
<style type="text/css">
	.st0{display:none;}
	.st1{fill:#474747;}
</style>
<g class="st0" id="Layer_1"/>
<g id="Layer_2">
<g>
<path class="st1" d="M445.63,199.39c-2.58-2.88-7.01-3.12-9.88-0.54c-2.88,2.58-3.12,7.01-0.54,9.88l0.36,0.41    c1.38,1.55,3.3,2.34,5.23,2.34c1.66,0,3.32-0.58,4.65-1.77c2.89-2.57,3.14-7,0.57-9.88L445.63,199.39z"/>
<path class="st1" d="M451.63,214.85c-3.57,1.47-5.28,5.56-3.8,9.14c5.63,13.67,2.4,29.15-8.23,39.43    c-13.96,13.5-36.71,13.08-50.72-0.93l-7.71-7.71c-4.07-4.07-9.47-6.31-15.23-6.31c-5.71,0-11.09,2.21-15.15,6.23    c-0.03,0.03-0.06,0.05-0.08,0.08c-8.39,8.4-8.39,22.06,0,30.45l20.33,20.33c6.77,6.76,10.5,15.76,10.5,25.33    s-3.73,18.56-10.5,25.33c-13.96,13.96-36.69,13.96-50.66,0l-20.06-20.06c-4.15-4.15-9.96-6.5-15.83-6.44    c-5.82,0.05-11.21,2.35-15.18,6.47c-8.08,8.39-7.96,21.92,0.28,30.16l13.85,13.86c6.77,6.76,10.5,15.76,10.5,25.33    c0,9.57-3.73,18.56-10.5,25.33c-13.96,13.96-36.69,13.96-50.66,0l-49.37-49.38c-2.73-2.73-7.17-2.73-9.9,0    c-2.73,2.73-2.73,7.17,0,9.9l49.37,49.38c9.71,9.71,22.47,14.56,35.23,14.56s25.52-4.86,35.22-14.57    c9.41-9.41,14.6-21.92,14.6-35.23c0-13.31-5.18-25.82-14.6-35.23l-13.85-13.85c-2.88-2.88-2.93-7.62-0.1-10.55    c1.34-1.39,3.19-2.16,5.23-2.18c2.17-0.01,4.29,0.83,5.8,2.34l20.06,20.06c19.43,19.42,51.04,19.42,70.46,0    c9.41-9.41,14.6-21.92,14.6-35.23c0-13.31-5.18-25.82-14.6-35.23l-20.33-20.33c-2.92-2.92-2.94-7.66-0.05-10.6    c0.02-0.02,0.04-0.03,0.05-0.05c1.42-1.42,3.31-2.21,5.33-2.21c2.01,0,3.9,0.78,5.33,2.21l7.71,7.71    c19.38,19.38,50.94,19.87,70.35,1.1c14.79-14.3,19.28-35.82,11.44-54.83C459.3,215.08,455.21,213.38,451.63,214.85z"/>
<path class="st1" d="M216.8,335.1c3.87,0,7-3.13,7-7s-3.13-7-7-7h-18.68l61.25-61.25h32.68c3.87,0,7-3.13,7-7s-3.13-7-7-7h-18.68    l61.25-61.25h32.68c3.87,0,7-3.13,7-7s-3.13-7-7-7h-28.61l-0.12-28.75c-0.02-3.86-3.15-6.97-7-6.97c-0.01,0-0.02,0-0.03,0    c-3.87,0.02-6.99,3.16-6.97,7.03l0.13,32.81l-61.31,61.31l-0.08-18.92c-0.02-3.86-3.15-6.97-7-6.97c-0.01,0-0.02,0-0.03,0    c-3.87,0.02-6.99,3.16-6.97,7.03l0.13,32.81l-61.31,61.31l-0.08-18.92c-0.02-3.87-3.12-6.98-7.03-6.97    c-3.87,0.02-6.99,3.16-6.97,7.03l0.13,32.81l-23.52,23.52l-66.87-66.86c-13.96-13.97-13.96-36.7,0-50.66    c6.76-6.77,15.76-10.5,25.33-10.5c9.57,0,18.56,3.73,25.33,10.5l13.85,13.84c8.24,8.24,21.77,8.37,30.16,0.29    c4.12-3.96,6.41-9.36,6.47-15.18c0.06-5.91-2.29-11.68-6.44-15.83l-20.06-20.05c-13.96-13.97-13.96-36.7,0-50.66    c6.76-6.77,15.76-10.5,25.33-10.5s18.56,3.73,25.33,10.5l20.33,20.33c4.07,4.07,9.47,6.31,15.23,6.31c0,0,0,0,0,0    c5.75,0,11.16-2.24,15.23-6.31c0.03-0.03,0.05-0.05,0.08-0.08c4.02-4.06,6.23-9.43,6.23-15.15c0-5.75-2.24-11.16-6.31-15.23    l-7.71-7.71c-14.01-14.01-14.43-36.76-0.93-50.72c6.74-6.97,15.77-10.85,25.45-10.93c0.1,0,0.21,0,0.31,0    c9.57,0,18.55,3.72,25.32,10.49l17.69,17.69c14.5,14.5,38.09,14.5,52.6-0.01l0.48-0.49c6.72-6.72,15.62-10.4,25.16-10.3    c9.5,0.08,18.38,3.89,24.99,10.73c13.25,13.7,12.84,36.03-0.91,49.79c-13.58,13.58-14.5,35.68-2.1,50.31    c2.5,2.95,6.92,3.31,9.87,0.82c2.95-2.5,3.31-6.92,0.82-9.87c-7.73-9.12-7.15-22.9,1.32-31.36c19.12-19.12,19.6-50.26,1.08-69.42    c-9.24-9.56-21.65-14.88-34.94-15c-13.28-0.08-25.78,5-35.18,14.4l-0.48,0.49c-9.04,9.04-23.75,9.04-32.79,0l-17.69-17.69    c-9.42-9.42-21.91-14.59-35.22-14.59c-0.15,0-0.29,0-0.44,0c-13.46,0.11-26.03,5.51-35.4,15.2c-18.77,19.41-18.28,50.97,1.1,70.35    l7.71,7.71c1.42,1.42,2.21,3.31,2.21,5.33c0,2.01-0.78,3.9-2.21,5.33c-0.02,0.02-0.04,0.04-0.05,0.05    c-1.42,1.39-3.29,2.16-5.28,2.16c-2.01,0-3.9-0.78-5.33-2.21l-20.33-20.33c-9.41-9.41-21.92-14.6-35.23-14.6    c-13.31,0-25.82,5.18-35.23,14.6c-19.42,19.42-19.42,51.03,0,70.46l20.06,20.06c1.51,1.51,2.37,3.62,2.35,5.8    c-0.02,2.04-0.79,3.89-2.18,5.23c-2.93,2.83-7.67,2.78-10.55-0.1l-13.85-13.84c-9.41-9.41-21.92-14.6-35.23-14.6    c-13.31,0-25.82,5.18-35.23,14.6c-19.42,19.42-19.42,51.03,0,70.46l66.87,66.86l-91.26,91.26c-2.73,2.73-2.73,7.17,0,9.9    c1.37,1.37,3.16,2.05,4.95,2.05s3.58-0.68,4.95-2.05l124.7-124.7H216.8z"/>
</g>
</g>
</svg>